# xmcd
#
# Track frame offsets:
#	150
#	13428
#	28433
#	41812
#	53760
#	68748
#	81964
#	95068
#	113531
#	123519
#
# Disc length: 1823 seconds
#
# Revision: 1
# Processed by: cddbd v1.5.2PL0 Copyright (c) Steve Scherf et al.
# Submitted via: audiograbber 1.83.01
#
DISCID=8c071d0a
DTITLE=Dustin - One Life
DYEAR=1998
DGENRE=Country
TTITLE0=One Life
TTITLE1=Would These Arms
TTITLE2=I Know What It's Like
TTITLE3=Less Is More
TTITLE4=What If
TTITLE5=You Don't Have To Be A Cowboy
TTITLE6=Blue Collar
TTITLE7=Talk To Him
TTITLE8=Baby Talk
TTITLE9=Cocaine
EXTD=
EXTT0=
EXTT1=
EXTT2=
EXTT3=
EXTT4=
EXTT5=
EXTT6=
EXTT7=
EXTT8=
EXTT9=
PLAYORDER=
